<svg width="12" height="12" viewBox="0 0 12 12" fill="none" xmlns="http://www.w3.org/2000/svg">
<path d="M5.99934 2.81062C6.97578 2.81062 7.63445 3.2324 8.01 3.58484L9.47756 2.15195C8.57623 1.31418 7.40334 0.799953 5.99934 0.799953C3.96556 0.799953 2.20912 1.96706 1.354 3.66573L3.03534 4.97151C3.45712 3.71773 4.62423 2.81062 5.99934 2.81062Z" fill="#EA4335"/>
<path d="M10.9915 6.11551C10.9915 5.68795 10.9568 5.37595 10.8817 5.05239H5.99951V6.98217H8.86529C8.80751 7.46173 8.49551 8.18395 7.80218 8.66928L9.44307 9.94039C10.4253 9.03328 10.9915 7.69862 10.9915 6.11551Z" fill="#4285F4"/>
<path d="M3.04109 7.0284C2.93132 6.70485 2.86776 6.35818 2.86776 5.99996C2.86776 5.64174 2.93132 5.29507 3.03532 4.97151L1.35398 3.66574C1.00154 4.37063 0.799316 5.16218 0.799316 5.99996C0.799316 6.83774 1.00154 7.62929 1.35398 8.33418L3.04109 7.0284Z" fill="#FBBC05"/>
<path d="M5.99942 11.2C7.40342 11.2 8.58209 10.7377 9.44297 9.94041L7.80209 8.6693C7.36297 8.97552 6.77364 9.1893 5.99942 9.1893C4.62431 9.1893 3.4572 8.28219 3.0412 7.02841L1.35986 8.33419C2.21497 10.0329 3.96564 11.2 5.99942 11.2Z" fill="#34A853"/>
</svg>
