<svg width="16" height="16" viewBox="0 0 16 16" fill="none" xmlns="http://www.w3.org/2000/svg">
<g clip-path="url(#clip0_4738_126)">
<path d="M0 0.196045H16V7.65442C16 9.70715 14.8995 11.6041 13.1132 12.6305L8.00006 15.5686L2.88687 12.6305C1.10045 11.6041 1.8338e-06 9.70715 1.8338e-06 7.65442L0 0.196045Z" fill="#FFDD2D"/>
<path fill-rule="evenodd" clip-rule="evenodd" d="M4.41406 4.03922V6.51404C4.75415 6.13187 5.37249 5.87328 6.0795 5.87328H6.84777V8.7502C6.84777 9.51559 6.63878 10.2651 6.32871 10.6336H9.67067C9.36126 10.2647 9.15277 9.51614 9.15277 8.75168V5.87328H9.9211C10.6281 5.87328 11.2464 6.13187 11.5865 6.51404V4.03922H4.41406Z" fill="#333333"/>
</g>
<defs>
<clipPath id="clip0_4738_126">
<rect width="16" height="16" fill="white"/>
</clipPath>
</defs>
</svg>
